# xmcd CD database file
#
# Track frame offsets:
#	300
#	19133
#	43424
#	60891
#	80484
#	100695
#	117219
#	138909
#	157653
#	173269
#	184574
#	202862
#	218949
#	243832
#	262391
#	279777
#	294292
#	314482
#
# Disc length: 4448 seconds
#
# Revision: 3
# Processed by: cddbd v1.5.2PL0 Copyright (c) Steve Scherf et al.
# Submitted via: CDex 1.51
#
DISCID=ec115c12
DTITLE=Various Artist - SF350
DYEAR=1900
DGENRE=Blues
TTITLE0=Taylor Swift - Style
TTITLE1=Ed Sheeran Ft Rudimental - Bloodstream
TTITLE2=Florence and The Machine - What Kind Of Man
TTITLE3=Royal Blood - Out Of The Black
TTITLE4=Usher Ft Juicy J - I Don't Mind
TTITLE5=Carly Rae Jepsen - I Really Like You
TTITLE6=Rihanna - Towards The Sun
TTITLE7=Alex Adair - Make Me Feel Better
TTITLE8=Flo Rida Ft Sage The Gemini and Lookas - G.D.F.R.
TTITLE9=The Vaccines - Handsome
TTITLE10=Jess Glynne - Hold My Hand
TTITLE11=Conor Maynard - Talking About
TTITLE12=Kanye West Ft Theophilus - All Day
TTITLE13=Pitbull Ft Ne-Yo - Time Of Our Lives
TTITLE14=Olly Murs - Seasons
TTITLE15=Philip George - Wish You Were Mine
TTITLE16=Madonna - Ghosttown
TTITLE17=Van Morrison and Michael Buble - Real Real Gone
EXTD=
EXTT0=
EXTT1=
EXTT2=
EXTT3=
EXTT4=
EXTT5=
EXTT6=
EXTT7=
EXTT8=
EXTT9=
EXTT10=
EXTT11=
EXTT12=
EXTT13=
EXTT14=
EXTT15=
EXTT16=
EXTT17=
PLAYORDER=
